<?xml version="1.0" encoding="UTF-8" standalone="no"?>
<svg width="55px" height="43px" viewBox="0 0 55 43" version="1.1" xmlns="http://www.w3.org/2000/svg" xmlns:xlink="http://www.w3.org/1999/xlink" xmlns:sketch="http://www.bohemiancoding.com/sketch/ns">
    <title>Untitled 2</title>
    <description>Created with Sketch (http://www.bohemiancoding.com/sketch)</description>
    <defs></defs>
    <g id="Page-1" stroke="none" stroke-width="1" fill="none" fill-rule="evenodd" sketch:type="MSPage">
        <g id="Group" sketch:type="MSLayerGroup" transform="translate(-1.000000, 0.000000)" fill="#FFFFFF">
            <polygon d="M23,0 L33.3923048,6 L33.3923048,18 L23,24 L12.6076952,18 L12.6076952,6 L23,0 Z M23,0" id="Polygon-1" sketch:type="MSShapeGroup" points="23 0 33.3923048 6 33.3923048 18 23 24 12.6076952 18 12.6076952 6 "></polygon>
            <polygon d="M34,19 L44.3923048,25 L44.3923048,37 L34,43 L23.6076952,37 L23.6076952,25 L34,19 Z M34,19" id="Polygon-1-copy" sketch:type="MSShapeGroup" points="34 19 44.3923048 25 44.3923048 37 34 43 23.6076952 37 23.6076952 25 "></polygon>
            <polygon d="M12,19 L22.3923048,25 L22.3923048,37 L12,43 L1.60769515,37 L1.60769515,25 L12,19 Z M12,19" id="Polygon-1-copy" sketch:type="MSShapeGroup" points="12 19 22.3923048 25 22.3923048 37 12 43 1.60769515 37 1.60769515 25 "></polygon>
            <polygon d="M45,0 L55.3923048,6 L55.3923048,18 L45,24 L34.6076952,18 L34.6076952,6 L45,0 Z M45,0" id="Polygon-1-copy-2" sketch:type="MSShapeGroup" points="45 0 55.3923048 6 55.3923048 18 45 24 34.6076952 18 34.6076952 6 "></polygon>
        </g>
    </g>
</svg>